<svg xmlns="http://www.w3.org/2000/svg" viewBox="0 0 64 64" width="64" height="64" role="img" aria-label="M">
  <defs>
    <linearGradient id="g-bg" x1="0" y1="0" x2="1" y2="1">
      <stop offset="0" stop-color="#131427"/>
      <stop offset="1" stop-color="#06060D"/>
    </linearGradient>
    <clipPath id="g-tile">
      <rect width="64" height="64" rx="14"/>
    </clipPath>
  </defs>

  <rect width="64" height="64" rx="14" fill="url(#g-bg)"/>

  <g clip-path="url(#g-tile)">
    <!-- aberración cromática -->
    <path d="M11 50 V14 h9 l12 18 12-18 h9 v36 h-8.5 V28.5 L34.5 44 h-5 L21 28.5 V50 Z"
          fill="#00E5D1" transform="translate(-2.4,1.2)" opacity="0.85"/>
    <path d="M11 50 V14 h9 l12 18 12-18 h9 v36 h-8.5 V28.5 L34.5 44 h-5 L21 28.5 V50 Z"
          fill="#FF2E88" transform="translate(2.4,-1.2)" opacity="0.85"/>
    <path d="M11 50 V14 h9 l12 18 12-18 h9 v36 h-8.5 V28.5 L34.5 44 h-5 L21 28.5 V50 Z"
          fill="#F2F5FA"/>

    <!-- barras de desplazamiento (glitch) -->
    <rect x="0" y="22.5" width="64" height="3" fill="#06060D"/>
    <rect x="6" y="22.5" width="52" height="3" fill="#F2F5FA" transform="translate(4,0)" opacity="0.9"/>
    <rect x="0" y="38" width="64" height="2.2" fill="#06060D"/>
    <rect x="4" y="38" width="46" height="2.2" fill="#00E5D1" transform="translate(-5,0)" opacity="0.9"/>
  </g>

  <rect x="0.75" y="0.75" width="62.5" height="62.5" rx="13.5" fill="none" stroke="#FFFFFF" stroke-opacity="0.12"/>
</svg>
